<mxfile host="app.diagrams.net" modified="2024-06-19T02:31:28.424Z" agent="Mozilla/5.0 (Windows NT 10.0; Win64; x64; rv:127.0) Gecko/20100101 Firefox/127.0" etag="JMhMz5NRdcMyu3mrUDtW" version="24.4.4" type="github">
  <diagram id="C5RBs43oDa-KdzZeNtuy" name="Page-1">
    <mxGraphModel dx="2390" dy="2412" grid="1" gridSize="10" guides="1" tooltips="1" connect="1" arrows="1" fold="1" page="1" pageScale="1" pageWidth="827" pageHeight="1169" math="0" shadow="0">
      <root>
        <mxCell id="WIyWlLk6GJQsqaUBKTNV-0" />
        <mxCell id="WIyWlLk6GJQsqaUBKTNV-1" parent="WIyWlLk6GJQsqaUBKTNV-0" />
        <mxCell id="Ee10irQ_H0JBk5VNjL8S-23" value="" style="rounded=1;whiteSpace=wrap;html=1;verticalLabelPosition=bottom;labelBackgroundColor=#ffffff;verticalAlign=top;strokeWidth=2;strokeColor=#0080F0;shadow=0;dashed=0;shape=mxgraph.ios7.icons.locked;" vertex="1" parent="WIyWlLk6GJQsqaUBKTNV-1">
          <mxGeometry x="920" width="321" height="360" as="geometry" />
        </mxCell>
        <mxCell id="Ee10irQ_H0JBk5VNjL8S-18" value="" style="rounded=1;whiteSpace=wrap;html=1;" vertex="1" parent="WIyWlLk6GJQsqaUBKTNV-1">
          <mxGeometry x="84" y="183.5" width="660" height="191" as="geometry" />
        </mxCell>
        <mxCell id="Ee10irQ_H0JBk5VNjL8S-3" value="" style="sketch=0;points=[[0,0,0],[0.25,0,0],[0.5,0,0],[0.75,0,0],[1,0,0],[0,1,0],[0.25,1,0],[0.5,1,0],[0.75,1,0],[1,1,0],[0,0.25,0],[0,0.5,0],[0,0.75,0],[1,0.25,0],[1,0.5,0],[1,0.75,0]];outlineConnect=0;fontColor=#232F3E;fillColor=#8C4FFF;strokeColor=#ffffff;dashed=0;verticalLabelPosition=bottom;verticalAlign=top;align=center;html=1;fontSize=12;fontStyle=0;aspect=fixed;shape=mxgraph.aws4.resourceIcon;resIcon=mxgraph.aws4.api_gateway;" vertex="1" parent="WIyWlLk6GJQsqaUBKTNV-1">
          <mxGeometry x="310" y="229" width="78" height="78" as="geometry" />
        </mxCell>
        <mxCell id="Ee10irQ_H0JBk5VNjL8S-6" value="" style="shape=image;verticalLabelPosition=bottom;labelBackgroundColor=default;verticalAlign=top;aspect=fixed;imageAspect=0;image=data:image/png,iVBORw0KGgoAAAANSUhEUgAAAMgAAADICAYAAACtWK6eAAAX7klEQVR4nOydTXBTV5bHz9OHLdlgyaanajCFU2P3CuPU9OBsguikq0JqQjqmNx0aKoFZNc6Qrk4vOqShl0knJotQlUzF3jVkBhJWgzMkU7gXSWFYmcpU284quAcoO7MIlr8ly5Lf1LlPz8i29O590nt67953flUpG0eSr+T3f+fjnntORNd1HQjHKaQfgp6dh7XpcdAz81BIP2D/Lsw+gPXsPPsZomcW2L/LEYolQIu3sO/DrR3G17YO0GIJ9m/z++ie/ewr4Ti6RgKpDRRCfmacXfj578dhbWYc1mcfVrzo3QLFFGrby4QTae+Bhs4UCad2SCB2yU3dhvz0OOSmRg1hpB96vSRLDMHsZ4Jhwuk66PWSZIIEwiP//QTkvhuF1ckbkJ+ZqLtlcBq0NCiYxu4XoeHHKYjs3u/1kvwMCaQcaCVWJ24wUfjdQtQKWpiGzoMQ6z1B1mU7JBATUxTZsavSW4lqIbFsI9gC0bPzsHJrkP0XVFFUAsXS2H0Emg71b2TQAkgwBYLWYvnme+wrwce0KvHe414vpd4ERyBkLWoHLUnz4bPM/QqIVVFfICQM5zFjlebnz6ouFHUFQsKoD/EDx1UWinoCIWF4g6JCUUcgJAzvQXFgII9xiiKoIZDVyS9gcfgcKwgkvMcM5hXIesktEBTEwmdnKF3rUxq7X4Sdfe/I7HbJK5DlkQFypyRhx+Gzsrpd8gkErQVaDXKn5CLc+gS09l+XzZrIJRCMM1ZGB71eBlEDklkTOQSC1mLu0qvs/AUhPxJZE/8LBOMMjDco1lALLZ5g1qQp1e/1Uqzwr0D07Dws3Rwgl0pxUCAoFBSMD/GnQMilChY+drn8J5Dc1G2Y//Mr5FIFDBRJy8sfQkNXyuullOIvgWC8sfj5Oa+XQXiIz7JcesTrFZhgIL40MuD1MgiPMa8Bv4jEcwuCwfji9XOQuXvVy2UQPiN+4AS0HPvI62V462KhOGYH+ygYJ8oSae+BttPDXma49JBXv7mQfkDiICzBa2N2qM/TsiJPLAi+4fSgt2+ckAcP08D1tyAkDsIuhfR9SA8e9eSaqatASBxEtXglkroJBAPyuUuvkjiIqkGR4DVkjo6oB3WLQR5dfIYCcsIR6pjdqk8MsvDZGRIH4Rh4LS0On6/L73JdIMsjA7QJSDhO5u4Vdm25jasCofIRwk2WRi64fhzCtRgkN3Ub0oMvufHSBFGCBq2nr7tVBexODGK24yEI99Fh7vJJ17KjjgtEz87TXgdRV/TMnGvpX8cFsnRzgMRB1J38zDiLSZzG0fMgrDeugmfIQz46CrpON5+K4LUXbtvraCMIx4J0Vp37wTPSH5UNFRswN3QehOieHt/OGUdXdm16nLkVub/dhrXpCVibGvV6WZ6jxZOw642vnCpsdO48yA/v/qPUrlW0MwU7Dr/ptzPRtkDR5L4bhey3X7BhpEEl0t4Du9742omXckYgsu937Oz7k9/7M9kGb1a5e7dgeeR9qW9c1dKUeo01zq6R2gWCHz5aDxkJxRKQOPWJ1FZDhMzYfwRQKI7sj9QuEJldKzTDaI6DwtLIe7DsQqbHr4Rbn4Af/eGbWl6ito1CdK1kFQe6VUESB7CWOm+xC8aHDdpcoZC+X7PrX7VAUBiyxh2x3uPKxRyi4F111xtfBeb9r4wOMaFUS9UCWRyWt8HbDp/0XPIKLZ5kFrT58JteL8V19MwcLHz2etXPr2qjMDN2lc0FlBG0HqIuBr7H1ckbUJj1lxsZbutg+zXR9h72fWT3/qpeB10uYK6y2nFJbuoO+zs2dr9o+7lVCaQedfhuET/AHyzp+7PzW2YymoP9m376mm2xBEMkOiwO/xEaOlO2TyHadrFkDszxw+Gl/XwvjjLgWjN3r8KjD37KjhhkbG4SokhUd7cwDlmuogzKlkDYH0LiHdrIbn7WalnyYks2w/HaGdsix7hMxLrKDAbsdit+bQlE9osn3LaX+xhVRkrnpkbZHpW4O6zJPrKZCwbsdq2IsEBMMy4zIU7hIb5HmW8A5VgaGWAZR5E7pxZPshkdKmPXiggLBK2H7Ph0zJfrrIwOsh63IhcGxmgq75HYtSJCAlHBegQdsxE0XyQa7HjuTa61lRk7VkQozauC9XADDPq9sEqFmfGqzt2Y/aR4cze0piTED51WNvVrWhGRDWOuQFjZtCKBq1NE2nsgeeoTTwNao5x9FDJjn9o6KIWeQGTPfq4b1XywHzK3hqQ/AFcJtCLNqX7uDY7rYuXu3VYucK0FFIXX4jDXEe89AW39w6wAsaHzoOAzdXZ2m/c3Na2IqojGIlyByLxr7gZNh/o9F8dWjPkZn8POvreFHi9an4RWRGXQivCwFEhm7CpZjy1UW/dUD5pS/wq7fvuVUICNbjO6aFZoTQkblkk+2Hl+zmdgKZDs2BWn1yQ963VsvV8NkT1PspN0fHSBIFxjxZ3qonM9pIoCoeC8PGsSfCYoEhF3C/+++e+tu+7H9h1xcGX+Izd1xzLlW1EgK7fU62/lBJm7V6UY5dCUek3APdIhO2F9bAHdLL/FXM6iWwbrFQUi63kPt8G7zexQH4vPdF+nQDWhCt3ViS+5j4l2qRuHACdYL7sPQqlda1AkC9fOwMK1+v/uSPt+Zh1i3Ue4OfyGrhSzIlauMrpY+H4qv5YG0d37IVvjuv2MGayXOwpR1oJQcO5f8jMTTJyPLj4rcBMTC7JXOZkctV0sYG5WJY+prEAoOPc/5tRXXk2RSJC9PvfQ8v+j1VKdzN1Py/58m0DIvZIHkVNy/CBbh8KstUCCQKU9kW0CIfdKLrJj5e98pYRbrQ+K8eqt1HexoKKbtd2CkHslFYU5vrUPtQXhAq+d1cntGb1NAsnPjJN7JRki5fbrPmtb5Ffw2t+6cbpJIBh/EHIR+ftgtU91m60a2CSQ1ckb9V4PURMaxHuPWT9EN1LDVvBilOB4FTqsbqks2OJiWX+QhL9o7D7CzoRYkeeePtS4QXghHZws19r3mzWwIRA0LaqeHlORplQ/JDhHZ6HMH7wcPAvixvRYv7I13btRaiJDAV4QsDrnHoonWG+vxn1HBAfDCJS0a8B9rTVOxa9q5L+f2PhMNgSSowGQnoLuUuLYvzk6NFTkwFv0H3hC0wPmeuvMgphn9kssSJA+BH9hnHP/d0dfU8/OCR2IEgny1wKW3czPTG58z2IQ9LuCk6nwHy0v82MJe+iwdFOgMUM8ATHOSAB+kK8epR02mUDWyHp4StThUXDLIwOsmyKPRoGS+aBWVqxNG3EXEwjFH97i5B16eeQ91taHj8bmwlujC3X+UBGzwpkJhDJY3uLE6U2MOeb+/IqgOICdNuTtfwS3sluHtaImWJBO5c7esnJrkLk71VTN6tl59nz8T9QShVufEGi7qUNW4lkwtZKfNgJ1JpD1QN4l/IM51ar58FmI7T9imepFQaxnFlgqcm1qlJVG2HHRQrEktPbz2wIVZoPdsNysko7omfnAZSn8CIrE/XPuGjQ/z3etxHpmqY2Z2Q1RBis4YNwhMvsj6NbDBK11KEh1NkEG3Tex+fA6pIeO1mFF/mdtegIiwcxSBAeMOVqOfSg8I1zmKcZOgxaEBKIw0c5DkDj2oXB2rDB7XzhNrD46czUjFKCrRyiWgB1973DPipTC2giRa7UJ1EaEziurQ7QzBbHuFyD+1AlbVcFsk/HSSXKttlCYfSg2o5DwJ2gpwu090NB1kLUYFTsjshkUx+zgUaqmKIOeYTEI7aK7AV68saeOuzJwB2OKcFtHzf2qSBzWsCDd60WoCF64rf3Dvm64hjEHulUkDmsitA/iPH4XR25qlM0oFIs5NHbUt6H7RQjFd0LuuzvF3lF6HVbqLUaQTlksR6m26LAeoEu1dPOC0FkRAw2anz8LO57bXBafGbsCS8PnlS9RYjGI14tQDZFOh15gz2oYYAy1VRxIvPcE888Xh887vEr/wR0DTdjDjy6rnpmDxevnbKZxtbLiMGlK9Ss9AdeEBOIwuSn/HTLS4knY9buvIX7A3sRaa1dRbMSb7JBAHAYtyNylV3wnErygW459ZEskPGvY0JXybbzlFBSDuEB+ZoIdgEI3JNzW4WivKyTUlKhyf8UQieiI7+zkFxC3HOGmsfe4+Pm5KtYiB5FQLKF8NsIL8CJ0+8LBGCDWewIaup4u3sk1gWdpkDz1CTy6+DO2F1IZ49CUtUAwYP8VqwBW8RrS4gkI+TXrQvBBK7Bw7Qz88O5Pihkqqwv+MRiTJE9d4j4ORc6dox5PKDsmGo0HxSCKkLl7lQ31zAg2Woi0P8kOUVmjQ2b0Y85j0M06LbxO2Qg57R8T3mGea0eXR4Tm1Gl+65+pO2WHW5YSbe9hd1vVCLV2QCgUb/F6HYTDLI0MCIkEXS1+qrbyDPHHr5NQdlR0iAY8qsnSiFhJSfzAce7dv9IM8cdowkd6ZSLcthdCKppGAowG1iMX+NW6mgbxQ9adTirNEC+loevpahbpa1iQrvpGT5BhJSbD/FRzvPdX3MfkOZOqIrtVGyaqsT0sSvMqjkiQjTdJ6wtc574GaOqJJJTcC6GoosEVYaILBewNnL2M0qEylYjsUetaCtFGYTBAK2JdV6VBhDOjpJB+wH0Npdx1rZi+xjdFgbr6ZDmpWpEg22zoXAnetFyZQMPBSk2guCFCqIzOzWaFk/xrYG06OH2cwwnj82ACUc13JLYj0r2mVk9CJRcr3GZYQyaQqGLZB2I765kF6wdo/OPCuoIVu5UwYzImEJWUT7iFDus+PE7sDho0dBoxGRMIL8VHEGb7n0CgPZ48zASCppWsSMDR+Udsg1L5HU52bLibG+dBVK3GJAxENoR5pwK1mHXltx87ulRDqRY2BNLQab/xMSELGkQ7rfc5RFqQ8lws/zWqqAZtUxNwsiBBAH3qPZydct4o8BK/vBKqnEuP7O7e+P6xBelK0Y66okQ7ee15dMj9jVPQWOKXV3qNvAIDYbWmRHkLAmRFFEWD+AFOObsOkLt3x/IhItcG1wpJwNaK5E0CUfFUWNAJt3VwW/dg7GB0bK+Exh/OowPnNWRAg1j3kU0/2SQQ2g9RDE2D1tPXuQ9b5bT2AYFixtw9fiM6Gdj6Pre4WD20H6IKmsba+nD/nroOK7eHLB+CVoh3GEqFQTzl3ue2vliNW0wMISFFcVh1ZzfJjF3lpmcb9/GuCR1Wv+VbIb8TLdOtngSiGjbEgdZj+S+cueiaBk2HrBvD6SvzQr1+/U35ZMa25tVmuleVnHZwMGqlWl7+SPAmZxzF5VkPfoqYfxhLBtC9KpeIKNt6NMbJehB+AoWRZFbjR3/4RtgDKMzehyWe9WBDdH7PeQy6VzeEV+tXyrlXUGn8AX7I4nPsgoxIN3V3QGsRbu+B2L4XIP7UcVuFhHpmDtJDv+A+LtqV4qZ3C7MPYHXyS+Hf7U8q7xWVFQi5WTw0dvHE9v1zXWcS4t+EVV7XMiNd12H+szP8uilNg5aX3ua+HK8tqQxUcq/AaoBO/FC/cBPkoFFu8qsU6Dprbr36Lf+Oj242r9MJSxGPWqeIZcAqS1dx/EFzyrodZVCJdh2SUhzoVqE4+H128Y76hGMpYt/DydJVFAia8iBMMbWHBk0Hf+31ImxTmP1fmB06KiQOliZ+7k2hDUZuilgCeFk6ywE6/AErwUOqY6e6DqsTN2D24s8Ed7qNmYO82i2WIv4LP0Xsf/iFnJZDPClY345I+xzv0Vkad+Hab2xt4EX29MDOl97hPq4w+wAyYwLWyOeIFHJyR7DxWuMHCx2yY1e8XkRldKPJ9MJnZ+CH9/7Jljgw7kievCz0O0Q2GP0PupK8PR6BMdAYrGduDZIVKYIXHV4gxmQm7/ZBWH158QtaNXSlVr/9oqqSDxRH6+nrQqljDMyFYhmfg++VW8IvIhAM1inlu5mlkQF2oaC/rnkwwk7PzLM7OP63du9OTTcvO+JAt02FwByJ/vig0HvmCgTIipSlHnPQ3UVjMUfb6etiu/BsD+V1BVwrI1MnmqoXGgNtWhFCEVjuvx92/fYrYXGgByF/xa5BrPe4cCWC8Jx0tCKyN3VQpW9TLYTiSUie/EQoW2Wgw8qtQYHCRkmwYT3AjkBUsCI8F1HpWSnMarxmq+IXisdxF//rvKtLqyd2rAfYEQgoYEVELIh6nV00Vh7T+uvrzGrYqfrNT/+VxR2qIFpCU4otgchuRUR86JZjH0l9EzAwzog0dv+cZagwEBdJaT7G2IFPDx1VKDGj2bYe7Fm6rut2noB34UcXn4VC+r7dFfqC1tPD3IslM3YFlob/COvZubqtqzaM/ZhazohsoBsxh0puFRStx4/e+sbu03ShNG8paEV2vvQ2zF1+1e5TfQFaEZ5A4r0n2GOWRgYgPz0J+f/zV8cOZuFiRkf+cFsHRHd3M9cwuqentg7sxWyVMgH5BkYBZlXPtGtBTNKDfZCb4szO9iEo8L9763/qetBJBozardeVSeWW0rj/52JlNNvRbcUgpcjqq6OLuDz6sdfL8A/F+q3Zi88qKQ7QNObxVEvVAkHzLmvAvjxyAfIzf/V6GR6js0NUc5degfRQn0LBeCmCzfOsXqFaF8vkh3d/ImXAjh9aa/91CLc+4fVS6ozOrCgG4iujQ4oKw6DKwLwUvWaBoHnGO5CMoDha+/8zICIJjjAYmsbEUWMr3doFgiwOn4cVSf16FEfy1KVigwIvy9ddAmOMqduwOnkDsmOfqi8MhuZUYw1nBII8+uAZqdvfxw8ch+bnzbPYMgtFL44imGCiyN27rWbwbYEDrpWJcwIppB/A7AfPSH+HQqHEeo8bDStk0EnxwBSb8TE9zvZsVie+lP7vUC2heBLa3vjKqSkFzgkEQTcL3S1ViLTv32jW5pdmDYXZx+cxUBR6ZiGwYtgGS+n+CZpS1s22beCsQIDFI+eobSnhAcYZF/EyfiGq3yisxI7DZ7nDVgjCacJtHbDjsPMN/RwXCLojyX/5BEKxpNMvTRBlMc/V11SHVgHHBQLFTbjEqcuSZ4MIKdA0aPnlh66NDnRFIFBsOrezr/oaGILgUpymZe+siz1cEwjSlHqN2pcSLmFj1FwNuCoQKAbt8QMn3P41RKAwTgfWo8u+6wJBdva9Q5ktwjEie3og8fJHdflddRGIFk9AW/8wiYSomcieJ9kZ+3pRF4FASfo3GJWzhBuYDbbdSOdWom4CgUCfwSBqxU4PYSepq0CAREJUgVfiAC8EAiUioZiE4IExh1fiACeO3NaCnpmH2cE+qc+REG5hs/u8OzhfrGgHDNx3/e5r2ichtmDsc3gsDmMlXlqQUpZGBmhID7FRPuKTUdv2Oyu6xY5iScryyIXH48WIYOH8gaea8Y0FMWFDKK/9RspWQkT1hOJJSJy87GrhYRU4f6LQCQrpB5AePEoiCQRGMJ48edmzTJUF/hQIFDNcSyMXisd3fblEolY0jQ1C3XH4Tc+D8Qr4VyAmK6Mfw/LN9yUaRUCIgC4VBuN+ijfK4H+BALlciuFrl2orcgjExEgFU5ZLWooulcOdR9xELoEAsyb3IT34C7ImUqGxriMtv/zQb1kqHvIJxISsiRxgrBE/1O+XjT+7yCsQKFqTxeHzsDr5JQnFd2gQ7UpB4mX3Oo7UAbkFYpIZuwLLI++T2+ULDHcK4ww789h9ihoCMUG3Kzv2KQnFEzTWvzie6ofmQ6f9uq9hF7UEAsWUsCkUcrvqgZLCMFFPICYkFLdRWhgm6grExBTK2r077HsSS60EQhgm6gvEBMWRuzdaDOZJKPYJlDBMgiOQUjJjVyAz9imssdFkgXv79tA0iHamYMdzv5dtk88JgikQE7QkK6ODbGQZWZVSAmktyhFsgZSC7lfm7tUAxyqGKGK9x6Fx3wtBtBblIIGUY7tYQEHBGLNbQm0dEOs+QqIoDwmER35mnAkmO/nfUJgZLxmYKdvHVhREPAHh9h6IMUEcLM6HJypAArELioWJZuoO5GcmfGphtI0voWQHRNt7oKHzaTa1l6yELUggtaJn52FtepwN68/PTLIxzevpB2VGMzv9MW8eb4eWAcUQ2dMD0d37WIFgw49TQQ6wnYAJZN3rVaiIKRw9M8+sTGHuIaxnFjbmnG9Ynsx8xTnnIby4i/PZzXnt4bYOCMVbIJzcy/6N1oH9XN6KWT+j/38AAAD//yexyW/kWapBAAAAAElFTkSuQmCC;" vertex="1" parent="WIyWlLk6GJQsqaUBKTNV-1">
          <mxGeometry x="124" y="230" width="80" height="80" as="geometry" />
        </mxCell>
        <mxCell id="Ee10irQ_H0JBk5VNjL8S-14" value="" style="sketch=0;outlineConnect=0;fontColor=#232F3E;gradientColor=none;fillColor=#7AA116;strokeColor=none;dashed=0;verticalLabelPosition=bottom;verticalAlign=top;align=center;html=1;fontSize=12;fontStyle=0;aspect=fixed;pointerEvents=1;shape=mxgraph.aws4.bucket;" vertex="1" parent="WIyWlLk6GJQsqaUBKTNV-1">
          <mxGeometry x="614" y="229" width="75" height="78" as="geometry" />
        </mxCell>
        <mxCell id="Ee10irQ_H0JBk5VNjL8S-15" value="" style="sketch=0;points=[[0,0,0],[0.25,0,0],[0.5,0,0],[0.75,0,0],[1,0,0],[0,1,0],[0.25,1,0],[0.5,1,0],[0.75,1,0],[1,1,0],[0,0.25,0],[0,0.5,0],[0,0.75,0],[1,0.25,0],[1,0.5,0],[1,0.75,0]];outlineConnect=0;fontColor=#232F3E;fillColor=#7AA116;strokeColor=#ffffff;dashed=0;verticalLabelPosition=bottom;verticalAlign=top;align=center;html=1;fontSize=12;fontStyle=0;aspect=fixed;shape=mxgraph.aws4.resourceIcon;resIcon=mxgraph.aws4.glacier;" vertex="1" parent="WIyWlLk6GJQsqaUBKTNV-1">
          <mxGeometry x="970" y="240" width="78" height="78" as="geometry" />
        </mxCell>
        <mxCell id="Ee10irQ_H0JBk5VNjL8S-16" value="" style="sketch=0;outlineConnect=0;fontColor=#232F3E;gradientColor=none;fillColor=#7AA116;strokeColor=none;dashed=0;verticalLabelPosition=bottom;verticalAlign=top;align=center;html=1;fontSize=12;fontStyle=0;aspect=fixed;pointerEvents=1;shape=mxgraph.aws4.vault;" vertex="1" parent="WIyWlLk6GJQsqaUBKTNV-1">
          <mxGeometry x="1130" y="240" width="62" height="78" as="geometry" />
        </mxCell>
        <mxCell id="Ee10irQ_H0JBk5VNjL8S-19" value="Collecting Data" style="text;html=1;align=center;verticalAlign=middle;whiteSpace=wrap;rounded=0;" vertex="1" parent="WIyWlLk6GJQsqaUBKTNV-1">
          <mxGeometry x="332.5" y="187" width="141" height="30" as="geometry" />
        </mxCell>
        <mxCell id="Ee10irQ_H0JBk5VNjL8S-20" value="&lt;div&gt;Brightspace&lt;/div&gt;" style="text;html=1;align=center;verticalAlign=middle;whiteSpace=wrap;rounded=0;" vertex="1" parent="WIyWlLk6GJQsqaUBKTNV-1">
          <mxGeometry x="84" y="319" width="141" height="30" as="geometry" />
        </mxCell>
        <mxCell id="Ee10irQ_H0JBk5VNjL8S-21" value="&lt;div&gt;S3 Bucket&lt;/div&gt;" style="text;html=1;align=center;verticalAlign=middle;whiteSpace=wrap;rounded=0;" vertex="1" parent="WIyWlLk6GJQsqaUBKTNV-1">
          <mxGeometry x="581" y="319" width="141" height="30" as="geometry" />
        </mxCell>
        <mxCell id="Ee10irQ_H0JBk5VNjL8S-22" value="&lt;div&gt;API Gateway&lt;/div&gt;" style="text;html=1;align=center;verticalAlign=middle;whiteSpace=wrap;rounded=0;" vertex="1" parent="WIyWlLk6GJQsqaUBKTNV-1">
          <mxGeometry x="278.5" y="319" width="141" height="30" as="geometry" />
        </mxCell>
        <mxCell id="Ee10irQ_H0JBk5VNjL8S-24" value="Archiving Data" style="text;html=1;align=center;verticalAlign=middle;whiteSpace=wrap;rounded=0;" vertex="1" parent="WIyWlLk6GJQsqaUBKTNV-1">
          <mxGeometry x="1011" y="110" width="160" height="30" as="geometry" />
        </mxCell>
        <mxCell id="Ee10irQ_H0JBk5VNjL8S-26" value="" style="rounded=1;whiteSpace=wrap;html=1;" vertex="1" parent="WIyWlLk6GJQsqaUBKTNV-1">
          <mxGeometry x="90" y="630" width="1161" height="420" as="geometry" />
        </mxCell>
        <mxCell id="Ee10irQ_H0JBk5VNjL8S-29" value="" style="outlineConnect=0;dashed=0;verticalLabelPosition=bottom;verticalAlign=top;align=center;html=1;shape=mxgraph.aws3.lambda_function;fillColor=#F58534;gradientColor=none;" vertex="1" parent="WIyWlLk6GJQsqaUBKTNV-1">
          <mxGeometry x="470" y="238" width="69" height="72" as="geometry" />
        </mxCell>
        <mxCell id="Ee10irQ_H0JBk5VNjL8S-33" value="Lambda" style="text;html=1;align=center;verticalAlign=middle;whiteSpace=wrap;rounded=0;" vertex="1" parent="WIyWlLk6GJQsqaUBKTNV-1">
          <mxGeometry x="434" y="319" width="141" height="30" as="geometry" />
        </mxCell>
        <mxCell id="Ee10irQ_H0JBk5VNjL8S-34" value="Glacier" style="text;html=1;align=center;verticalAlign=middle;whiteSpace=wrap;rounded=0;" vertex="1" parent="WIyWlLk6GJQsqaUBKTNV-1">
          <mxGeometry x="938.5" y="318" width="141" height="30" as="geometry" />
        </mxCell>
        <mxCell id="Ee10irQ_H0JBk5VNjL8S-35" value="Vault" style="text;html=1;align=center;verticalAlign=middle;whiteSpace=wrap;rounded=0;" vertex="1" parent="WIyWlLk6GJQsqaUBKTNV-1">
          <mxGeometry x="1090.5" y="319" width="141" height="30" as="geometry" />
        </mxCell>
        <mxCell id="Ee10irQ_H0JBk5VNjL8S-37" value="" style="sketch=0;points=[[0,0,0],[0.25,0,0],[0.5,0,0],[0.75,0,0],[1,0,0],[0,1,0],[0.25,1,0],[0.5,1,0],[0.75,1,0],[1,1,0],[0,0.25,0],[0,0.5,0],[0,0.75,0],[1,0.25,0],[1,0.5,0],[1,0.75,0]];outlineConnect=0;fontColor=#232F3E;fillColor=#E7157B;strokeColor=#ffffff;dashed=0;verticalLabelPosition=bottom;verticalAlign=top;align=center;html=1;fontSize=12;fontStyle=0;aspect=fixed;shape=mxgraph.aws4.resourceIcon;resIcon=mxgraph.aws4.eventbridge;" vertex="1" parent="WIyWlLk6GJQsqaUBKTNV-1">
          <mxGeometry x="550" y="430" width="78" height="78" as="geometry" />
        </mxCell>
        <mxCell id="Ee10irQ_H0JBk5VNjL8S-39" value="Eventbridge" style="text;html=1;align=center;verticalAlign=middle;whiteSpace=wrap;rounded=0;" vertex="1" parent="WIyWlLk6GJQsqaUBKTNV-1">
          <mxGeometry x="550" y="520" width="81" height="30" as="geometry" />
        </mxCell>
      </root>
    </mxGraphModel>
  </diagram>
</mxfile>
